<svg xmlns="http://www.w3.org/2000/svg" width="62.75" height="48.7" viewBox="0 0 62.75 48.7"><defs><style>.a,.b,.c,.d{fill:none;stroke-width:2px;}.a,.b{stroke:#999;}.a,.b,.c{stroke-linejoin:round;}.b,.c{stroke-linecap:round;}.c,.d{stroke:#c83a32;}</style></defs><g transform="translate(0 1)"><path class="a" d="M12.52,13.59,63,13.39l-7.1,28H20.23l-8.86-32H1.25" transform="translate(-1.25 -9.39)"/><line class="b" x2="40.64" transform="translate(16.4 22.71)"/><line class="b" x2="45.7" transform="translate(13.75 13.17)"/><line class="b" y2="27.87" transform="translate(22.9 4.15)"/><line class="b" y2="12" transform="translate(14.58 4.15)"/><line class="b" y2="27.87" transform="translate(31.16 4.15)"/><line class="b" y2="27.87" transform="translate(39.41 4.15)"/><line class="b" y2="27.87" transform="translate(47.67 4.15)"/><line class="b" y2="22.93" transform="translate(55.93 4.15)"/><path class="b" d="M20.23,41.41V45.7a2.55,2.55,0,0,0,2.55,2.55H53.24" transform="translate(-1.25 -9.39)"/><circle class="c" cx="3.92" cy="3.92" r="3.92" transform="translate(18.66 38.86)"/><circle class="c" cx="3.92" cy="3.92" r="3.92" transform="translate(47.93 38.86)"/><line class="d" x1="9"/></g></svg>