<svg xmlns="http://www.w3.org/2000/svg" width="58.008" height="57.523" viewBox="0 0 58.008 57.523"><defs><style>.a,.d{fill:none;}.b,.f{fill:#999;}.c{fill:#c83a32;}.e,.f{stroke:none;}</style></defs><g transform="translate(2.008 -1)"><g class="a" transform="translate(-3857.859 -25752.289) rotate(45)"><path class="e" d="M20968,15512a3,3,0,0,1-3-3v-34a2.981,2.981,0,0,1,.574-1.764,2.154,2.154,0,0,1,.342-.449l10.172-10.172a2.005,2.005,0,0,1,2.83,0l10.172,10.172a2.01,2.01,0,0,1,.355.475,2.986,2.986,0,0,1,.557,1.738v34a3,3,0,0,1-3,3Z"/><path class="f" d="M 20987.001953125 15510.0009765625 C 20987.552734375 15510.0009765625 20988 15509.55078125 20988 15508.998046875 L 20988 15474.9990234375 C 20988 15474.736328125 20987.8984375 15474.5400390625 20987.814453125 15474.421875 L 20987.744140625 15474.3212890625 L 20987.68359375 15474.2109375 C 20987.68359375 15474.2109375 20987.681640625 15474.208984375 20987.677734375 15474.205078125 L 20987.67578125 15474.203125 L 20987.673828125 15474.2001953125 L 20977.505859375 15464.033203125 C 20977.50390625 15464.03125 20977.50390625 15464.0302734375 20977.5 15464.0283203125 L 20967.3359375 15474.193359375 C 20967.3203125 15474.208984375 20967.314453125 15474.2197265625 20967.310546875 15474.22265625 L 20967.255859375 15474.322265625 L 20967.1875 15474.4140625 C 20967.1015625 15474.533203125 20966.998046875 15474.73046875 20966.998046875 15474.9990234375 L 20966.998046875 15508.998046875 C 20966.998046875 15509.55078125 20967.447265625 15510.0009765625 20968 15510.0009765625 L 20987.001953125 15510.0009765625 M 20987.001953125 15512.0009765625 L 20968 15512.0009765625 C 20966.341796875 15512.0009765625 20964.998046875 15510.6572265625 20964.998046875 15508.998046875 L 20964.998046875 15474.9990234375 C 20964.998046875 15474.33984375 20965.2109375 15473.73046875 20965.572265625 15473.2353515625 C 20965.662109375 15473.0771484375 20965.775390625 15472.9267578125 20965.9140625 15472.7861328125 L 20976.0859375 15462.6142578125 C 20976.4765625 15462.224609375 20976.98828125 15462.029296875 20977.5 15462.029296875 C 20978.01171875 15462.029296875 20978.5234375 15462.224609375 20978.916015625 15462.6142578125 L 20989.087890625 15472.7861328125 C 20989.236328125 15472.93359375 20989.353515625 15473.09375 20989.443359375 15473.2607421875 C 20989.79296875 15473.7509765625 20990 15474.3515625 20990 15474.9990234375 L 20990 15508.998046875 C 20990 15510.6572265625 20988.65625 15512.0009765625 20987.001953125 15512.0009765625 Z"/></g><g transform="translate(33.066 17.898)"><path class="b" d="M58.035,43.721h0a3.048,3.048,0,1,0-3.047-3.048A3.052,3.052,0,0,0,58.035,43.721Zm0-4.547a1.5,1.5,0,1,1-1.5,1.5A1.5,1.5,0,0,1,58.035,39.174Z" transform="translate(-54.989 -37.625)"/></g><g transform="translate(53.653 8.043) rotate(135)"><path class="c" d="M5.4,7.974H5.366C3.964,7.964,1.911,7.31.089,4.25a.636.636,0,0,1,.16-.831.52.52,0,0,1,.759.175c1.231,2.069,2.742,3.169,4.366,3.18H5.4c1.762,0,3.557-1.282,4.93-3.523A6.077,6.077,0,0,1,14.719.04C18.311-.406,21.693,3,21.836,3.147A.642.642,0,0,1,21.862,4a.515.515,0,0,1-.775.03c-.031-.032-3.16-3.182-6.248-2.791a5.046,5.046,0,0,0-3.6,2.686C9.659,6.5,7.532,7.974,5.4,7.974Z" transform="translate(0 0)"/></g><rect class="d" width="56" height="56" transform="translate(0 1)"/></g></svg>