<svg xmlns="http://www.w3.org/2000/svg" width="60.227" height="60.004" viewBox="0 0 60.227 60.004"><defs><style>.a,.c{fill:#999;}.b{fill:#c83a32;}.c{font-size:6px;font-family:Roboto-Medium, Roboto;font-weight:500;}</style></defs><g transform="translate(10.249 10.215)"><rect class="a" width="3.329" height="36.068"/><rect class="a" width="3.33" height="26.635" transform="translate(4.537)"/><rect class="a" width="1.664" height="26.635" transform="translate(8.977)"/><path class="a" d="M1014.567,2242.978h-3.514v26.635h6.659v-26.635Zm0,0" transform="translate(-994.308 -2242.977)"/><rect class="a" width="2.775" height="26.635" transform="translate(11.752)"/><rect class="a" width="3.33" height="26.635" transform="translate(32.284)"/><path class="a" d="M1022.873,2242.978h-2.957v26.635h4.992v-26.635Zm0,0" transform="translate(-994.291 -2242.977)"/><rect class="a" width="2.776" height="36.068" transform="translate(36.722)"/></g><rect class="b" width="13.995" height="2"/><rect class="b" width="2" height="13.995"/><g transform="translate(46)"><rect class="b" width="2" height="13.995" transform="translate(11.999)"/><rect class="b" width="13.996" height="2"/></g><g transform="translate(46.002 46.008)"><rect class="b" width="13.994" height="2" transform="translate(0 11.991)"/><rect class="b" width="2" height="13.996" transform="translate(11.997)"/></g><g transform="translate(0 46.008)"><rect class="b" width="2" height="13.996"/><rect class="b" width="13.995" height="2" transform="translate(0 11.991)"/></g><text class="c" transform="translate(16 43.563)"><tspan x="0" y="0">Scan Item</tspan></text><rect class="a" width="60" height="0.5" transform="translate(0.227 29.215)"/></svg>