<svg width="52" height="52" viewBox="0 0 52 52" fill="none" xmlns="http://www.w3.org/2000/svg">
<path d="M18.2017 0C16.7763 0 15.5966 1.17114 15.5966 2.59654V17.3316H36.4034V2.59654C36.4034 1.17114 35.2237 0 33.7983 0H29.4667V6.93504C29.4631 7.62629 28.6919 8.03566 28.1176 7.65098L26 6.2376L23.8824 7.65098C23.3078 8.03779 22.534 7.62812 22.5316 6.93504V0H18.2017ZM24.2667 0V5.31674L25.521 4.47715C25.8113 4.28454 26.1887 4.28454 26.479 4.47715L27.7333 5.31674V0H24.2667ZM19.935 13.8633H23.4034C23.63 13.8682 23.8456 13.9617 24.004 14.1237C24.1625 14.2857 24.2513 14.5032 24.2513 14.7299C24.2513 14.9565 24.1625 15.1741 24.004 15.3361C23.8456 15.4981 23.63 15.5916 23.4034 15.5965H19.935C19.7085 15.5916 19.4928 15.4981 19.3344 15.3361C19.1759 15.1741 19.0871 14.9565 19.0871 14.7299C19.0871 14.5032 19.1759 14.2857 19.3344 14.1237C19.4928 13.9617 19.7085 13.8682 19.935 13.8633ZM8.66836 19.065C7.24295 19.065 6.06498 20.2362 6.06498 21.6616V36.3983H25.1333V19.2257C24.8607 19.1274 24.5715 19.0649 24.2667 19.0649H19.935V25.9999C19.9368 26.6942 19.1628 27.1091 18.5859 26.7227L16.4667 25.3093L14.3491 26.7227C13.7722 27.1091 12.9979 26.6932 13 25.9999V19.0649L8.66836 19.065ZM14.7333 19.065V24.3817L15.9876 23.5421C16.2784 23.3488 16.6567 23.3488 16.9474 23.5421L18.2017 24.3817V19.065H14.7333ZM27.7333 19.065C27.4285 19.065 27.1393 19.1275 26.8667 19.2258V36.3984H45.935V21.6616C45.935 20.2362 44.757 19.065 43.3316 19.065H39V26C39.0017 26.6943 38.2278 27.1091 37.6509 26.7227L35.5316 25.3094L33.4141 26.7227C32.8372 27.1091 32.0629 26.6933 32.065 26V19.065H27.7333ZM33.7983 19.065V24.3817L35.0526 23.5421C35.3433 23.3488 35.7216 23.3488 36.0124 23.5421L37.2667 24.3817V19.065H33.7983ZM10.4034 32.9282H13.8633C13.9787 32.9257 14.0934 32.9462 14.2008 32.9886C14.3082 33.031 14.406 33.0945 14.4885 33.1753C14.571 33.256 14.6366 33.3523 14.6813 33.4587C14.7261 33.5652 14.7491 33.6795 14.7491 33.7949C14.7491 33.9104 14.7261 34.0246 14.6813 34.131C14.6366 34.2374 14.571 34.3339 14.4885 34.4146C14.406 34.4953 14.3082 34.5587 14.2008 34.6011C14.0934 34.6435 13.9787 34.6641 13.8633 34.6616H10.4034C10.288 34.6641 10.1732 34.6435 10.0659 34.6011C9.9585 34.5587 9.86069 34.4953 9.77818 34.4146C9.69566 34.3339 9.6301 34.2374 9.58534 34.131C9.54058 34.0246 9.51752 33.9104 9.51752 33.7949C9.51752 33.6795 9.54058 33.5652 9.58534 33.4587C9.6301 33.3523 9.69566 33.256 9.77818 33.1753C9.86069 33.0945 9.9585 33.031 10.0659 32.9886C10.1732 32.9462 10.288 32.9257 10.4034 32.9282ZM29.4667 32.9282H32.935C33.0504 32.9257 33.1652 32.9462 33.2725 32.9886C33.3799 33.031 33.4777 33.0945 33.5602 33.1753C33.6428 33.256 33.7083 33.3523 33.7531 33.4587C33.7978 33.5652 33.8209 33.6795 33.8209 33.7949C33.8209 33.9104 33.7978 34.0246 33.7531 34.131C33.7083 34.2374 33.6428 34.3339 33.5602 34.4146C33.4777 34.4953 33.3799 34.5587 33.2725 34.6011C33.1652 34.6435 33.0504 34.6641 32.935 34.6616H29.4667C29.3513 34.6641 29.2365 34.6435 29.1291 34.6011C29.0218 34.5587 28.924 34.4953 28.8414 34.4146C28.7589 34.3339 28.6934 34.2374 28.6486 34.131C28.6038 34.0246 28.5808 33.9104 28.5808 33.7949C28.5808 33.6795 28.6038 33.5652 28.6486 33.4587C28.6934 33.3523 28.7589 33.256 28.8414 33.1753C28.924 33.0945 29.0218 33.031 29.1291 32.9886C29.2365 32.9462 29.3513 32.9257 29.4667 32.9282ZM0.863284 38.1299C0.384494 38.1317 -0.00183108 38.5212 6.5285e-06 39V42.4666C0.00173964 42.9429 0.386982 43.3299 0.863284 43.3316H2.59662V46.7983H0.863284C0.386982 46.8001 0.00167904 47.1853 6.5285e-06 47.6616V51.1299C-0.00172691 51.6087 0.384494 51.9983 0.863284 52H51.1367C51.6155 51.9983 52.0018 51.6087 52 51.1299V47.6616C51.9983 47.1853 51.613 46.8 51.1367 46.7983H49.4034V43.3316H51.1367C51.613 43.3299 51.9983 42.9429 52 42.4666V39C52.0017 38.5212 51.6155 38.1316 51.1367 38.1299H0.863284ZM7.79831 43.3316H16.4667V46.7983H7.79831V43.3316ZM21.6684 43.3316H30.3316V46.7983H21.6684V43.3316ZM35.5316 43.3316H44.2017V46.7983H35.5316V43.3316Z" fill="#2C2C2C"/>
</svg>
