<svg width="53" height="62" viewBox="0 0 53 62" fill="none" xmlns="http://www.w3.org/2000/svg">
<path d="M23.1144 42.7548H30.2419C30.8801 42.7548 31.3982 43.2709 31.3982 43.9116V44.5343C31.3982 45.1751 30.8809 45.692 30.2419 45.692H23.1144C22.477 45.692 21.9622 45.1759 21.9622 44.5343V43.9116C21.9622 43.2709 22.4762 42.7548 23.1144 42.7548ZM14.4103 39.654C13.6438 39.654 13.0229 40.3204 13.0229 41.1544V60.5037C13.0229 61.3336 13.6438 62 14.4103 62H38.585C39.3555 62 39.9772 61.3336 39.9772 60.5037V41.1552C39.9772 40.3204 39.3555 39.6548 38.585 39.6548H14.4103V39.654Z" fill="#2C2C2C"/>
<path d="M26.4985 0C22.0609 0 17.4687 1.39802 13.4934 3.6986C5.33865 8.42857 0.254701 17.0702 0.00223115 26.4847C-0.0150388 27.0694 0.0655543 27.3964 0.327893 27.749L8.61089 38.256C9.89216 39.9637 12.4103 37.9554 11.0484 36.3154L3.77531 27.0941C3.34356 26.5434 3.47185 25.9934 4.04505 25.7011C6.45133 24.4674 9.38558 23.0347 12.3544 23.1685C18.5781 23.4566 22.3125 25.2461 24.1218 26.0884C24.8274 26.4203 24.917 26.6301 24.917 27.3584V35.2461C24.8965 36.3163 25.7016 36.8464 26.4985 36.8332C27.2937 36.8464 28.1005 36.3163 28.0824 35.2461V27.3584C28.0824 26.6309 28.1679 26.4203 28.8801 26.0884C30.6868 25.2461 34.4213 23.4566 40.6458 23.1685C43.6097 23.0347 46.5439 24.4674 48.9502 25.7011C49.53 25.9934 49.6575 26.5442 49.2241 27.0941L41.951 36.3154C40.5891 37.9554 43.108 39.9628 44.3844 38.256L52.6723 27.749C52.933 27.3964 53.0144 27.0694 52.998 26.4847C52.7397 17.0702 47.6566 8.42857 39.5011 3.69777C35.5274 1.39802 30.936 0 26.4985 0Z" fill="#2C2C2C"/>
</svg>
