<svg width="66" height="56" viewBox="0 0 66 56" fill="none" xmlns="http://www.w3.org/2000/svg">
<path d="M14.0914 3.10074H21.219C21.8571 3.10074 22.3752 3.61685 22.3752 4.25764V4.88026C22.3752 5.52106 21.858 6.03799 21.219 6.03799H14.0914C13.4541 6.03799 12.9393 5.52188 12.9393 4.88026V4.25764C12.9393 3.61685 13.4532 3.10074 14.0914 3.10074ZM5.38735 0C4.6209 0 4 0.666393 4 1.50041V20.8497C4 21.6796 4.6209 22.346 5.38735 22.346H29.562C30.3326 22.346 30.9543 21.6796 30.9543 20.8497V1.50124C30.9543 0.666392 30.3326 0.00082531 29.562 0.00082531H5.38735V0Z" fill="#2C2C2C"/>
<path d="M14.0914 33.1007H21.219C21.8571 33.1007 22.3752 33.6168 22.3752 34.2576V34.8803C22.3752 35.5211 21.858 36.038 21.219 36.038H14.0914C13.4541 36.038 12.9393 35.5219 12.9393 34.8803V34.2576C12.9393 33.6168 13.4532 33.1007 14.0914 33.1007ZM5.38735 30C4.6209 30 4 30.6664 4 31.5004V50.8497C4 51.6796 4.6209 52.346 5.38735 52.346H29.562C30.3326 52.346 30.9543 51.6796 30.9543 50.8497V31.5012C30.9543 30.6664 30.3326 30.0008 29.562 30.0008H5.38735V30Z" fill="#2C2C2C"/>
<path d="M45.0914 3.10074H52.219C52.8571 3.10074 53.3752 3.61685 53.3752 4.25764V4.88026C53.3752 5.52106 52.858 6.03799 52.219 6.03799H45.0914C44.4541 6.03799 43.9393 5.52188 43.9393 4.88026V4.25764C43.9393 3.61685 44.4532 3.10074 45.0914 3.10074ZM36.3874 0C35.6209 0 35 0.666393 35 1.50041V20.8497C35 21.6796 35.6209 22.346 36.3874 22.346H60.562C61.3326 22.346 61.9543 21.6796 61.9543 20.8497V1.50124C61.9543 0.666392 61.3326 0.00082531 60.562 0.00082531H36.3874V0Z" fill="#2C2C2C"/>
<path d="M45.0914 33.1007H52.219C52.8571 33.1007 53.3752 33.6168 53.3752 34.2576V34.8803C53.3752 35.5211 52.858 36.038 52.219 36.038H45.0914C44.4541 36.038 43.9393 35.5219 43.9393 34.8803V34.2576C43.9393 33.6168 44.4532 33.1007 45.0914 33.1007ZM36.3874 30C35.6209 30 35 30.6664 35 31.5004V50.8497C35 51.6796 35.6209 52.346 36.3874 52.346H60.562C61.3326 52.346 61.9543 51.6796 61.9543 50.8497V31.5012C61.9543 30.6664 61.3326 30.0008 60.562 30.0008H36.3874V30Z" fill="#2C2C2C"/>
<rect y="19" width="66" height="7" rx="1" fill="#2C2C2C"/>
<rect y="49" width="66" height="7" rx="1" fill="#2C2C2C"/>
</svg>
