<svg xmlns="http://www.w3.org/2000/svg" width="30.65" height="30" viewBox="0 0 30.65 30"><defs><style>.a,.b,.c{fill:none;}.b{stroke:#999;}.b,.c{stroke-miterlimit:10;stroke-width:2px;}.c{stroke:#c83a32;}</style></defs><g transform="translate(0.403 -2)"><rect class="a" width="30" height="30" transform="translate(0 2)"/><path class="b" d="M38.953,34.728h2.388V27.8A4.7,4.7,0,0,0,40.5,25.57l-2.462-3.284A3.043,3.043,0,0,0,35.969,21H31.194A1.267,1.267,0,0,0,30,22.194V33.534a1.275,1.275,0,0,0,1.194,1.194h1.194m8.953-6.566H34.775a1.284,1.284,0,0,1-1.194-1.194V24.581a1.235,1.235,0,0,1,1.194-1.194h4.086" transform="translate(-12.094 -8.466)"/><path class="b" d="M11.147,31.875h7.163V15.163L1,15.025v16.85H5.178" transform="translate(-0.403 -5.613)"/><g transform="translate(4.775 23.278)"><circle class="c" cx="3" cy="3" r="3" transform="translate(0.225 -0.278)"/></g><g transform="translate(20.294 23.278)"><circle class="c" cx="3" cy="3" r="3" transform="translate(-0.293 -0.278)"/></g></g></svg>