<svg xmlns="http://www.w3.org/2000/svg" width="43" height="52" viewBox="0 0 43 52"><defs><style>.a,.d{fill:none;stroke-width:2px;}.a{stroke:#c83a32;}.b,.c{fill:#999;}.b{font-size:8px;font-family:Roboto-Bold, Roboto;font-weight:700;}.d{stroke:#999;}</style></defs><g transform="translate(-1 -2)"><g transform="translate(2 3)"><rect class="a" width="8" height="8"/><text class="b" transform="translate(37 7)"><tspan x="0" y="0">$</tspan></text><g transform="translate(13.177)"><rect class="c" width="20" height="2"/><rect class="c" width="20" height="2" transform="translate(0 6)"/></g></g><g transform="translate(2 17)"><rect class="d" width="8" height="8"/><g transform="translate(13.177)"><rect class="c" width="20" height="2"/><rect class="c" width="20" height="2" transform="translate(0 6)"/></g><text class="b" transform="translate(37 7)"><tspan x="0" y="0">$</tspan></text></g><g transform="translate(2 31)"><rect class="d" width="8" height="8"/><g transform="translate(13.177)"><rect class="c" width="20" height="2"/><rect class="c" width="20" height="2" transform="translate(0 6)"/></g><text class="b" transform="translate(37 7)"><tspan x="0" y="0">$</tspan></text></g><g transform="translate(2 45)"><rect class="d" width="8" height="8"/><g transform="translate(13.177)"><rect class="c" width="20" height="2"/><rect class="c" width="20" height="2" transform="translate(0 6)"/></g><text class="b" transform="translate(37 7)"><tspan x="0" y="0">$</tspan></text></g></g></svg>